{"scene":0,"asset":{"generator":"ImageToStl.com","version":"2.0"},"scenes":[{"name":"Scene","nodes":[0]}],"nodes":[{"name":"Node0","children":[1,2,3,4,5,6,7,8,9,10]},{"name":"Node1","mesh":0},{"name":"Node2","mesh":1},{"name":"Node3","mesh":2},{"name":"Node4","mesh":3},{"name":"Node5","mesh":4},{"name":"Node6","mesh":5},{"name":"Node7","mesh":6},{"name":"Node8","mesh":7},{"name":"Node9","mesh":8},{"name":"Node10","mesh":9}],"materials":[{"name":"Material.001","pbrMetallicRoughness":{"baseColorFactor":[0.35884,0.35884,0.35884,1.0],"metallicFactor":0.5,"roughnessFactor":0.75},"emissiveFactor":[0.0,0.0,0.0],"doubleSided":true},{"name":"Material.002","pbrMetallicRoughness":{"baseColorFactor":[0.35884,0.35884,0.35884,1.0],"metallicFactor":0.5,"roughnessFactor":0.75},"emissiveFactor":[0.0,0.0,0.0],"doubleSided":true},{"name":"Material.003","pbrMetallicRoughness":{"baseColorFactor":[0.35884,0.35884,0.35884,1.0],"metallicFactor":0.5,"roughnessFactor":0.75},"emissiveFactor":[0.0,0.0,0.0],"doubleSided":true},{"name":"Material.007","pbrMetallicRoughness":{"baseColorFactor":[0.35884,0.35884,0.35884,1.0],"metallicFactor":0.5,"roughnessFactor":0.75},"emissiveFactor":[0.0,0.0,0.0],"doubleSided":true},{"name":"Material.006","pbrMetallicRoughness":{"baseColorFactor":[0.35884,0.35884,0.35884,1.0],"metallicFactor":0.5,"roughnessFactor":0.75},"emissiveFactor":[0.0,0.0,0.0],"doubleSided":true},{"name":"Material.008","pbrMetallicRoughness":{"baseColorFactor":[0.35884,0.35884,0.35884,1.0],"metallicFactor":0.5,"roughnessFactor":0.75},"emissiveFactor":[0.0,0.0,0.0],"doubleSided":true},{"name":"Material.009","pbrMetallicRoughness":{"baseColorFactor":[0.35884,0.35884,0.35884,1.0],"metallicFactor":0.5,"roughnessFactor":0.75},"emissiveFactor":[0.0,0.0,0.0],"doubleSided":true},{"name":"Material.010","pbrMetallicRoughness":{"baseColorFactor":[0.35884,0.35884,0.35884,1.0],"metallicFactor":0.5,"roughnessFactor":0.75},"emissiveFactor":[0.0,0.0,0.0],"doubleSided":true},{"name":"Material.012","pbrMetallicRoughness":{"baseColorFactor":[0.35884,0.35884,0.35884,1.0],"metallicFactor":0.5,"roughnessFactor":0.75},"emissiveFactor":[0.0,0.0,0.0],"doubleSided":true},{"name":"Material.013","pbrMetallicRoughness":{"baseColorFactor":[0.0,0.226584,0.004738,1.0],"metallicFactor":0.5,"roughnessFactor":0.75},"emissiveFactor":[0.0,0.0,0.0],"doubleSided":true}],"meshes":[{"name":"Mesh0","primitives":[{"indices":3,"material":0,"attributes":{"POSITION":0,"NORMAL":1,"TEXCOORD_0":2}}]},{"name":"Mesh0","primitives":[{"indices":7,"material":1,"attributes":{"POSITION":4,"NORMAL":5,"TEXCOORD_0":6}}]},{"name":"Mesh0","primitives":[{"indices":11,"material":2,"attributes":{"POSITION":8,"NORMAL":9,"TEXCOORD_0":10}}]},{"name":"Mesh0","primitives":[{"indices":15,"material":3,"attributes":{"POSITION":12,"NORMAL":13,"TEXCOORD_0":14}}]},{"name":"Mesh0","primitives":[{"indices":19,"material":4,"attributes":{"POSITION":16,"NORMAL":17,"TEXCOORD_0":18}}]},{"name":"Mesh0","primitives":[{"indices":23,"material":5,"attributes":{"POSITION":20,"NORMAL":21,"TEXCOORD_0":22}}]},{"name":"Mesh0","primitives":[{"indices":27,"material":6,"attributes":{"POSITION":24,"NORMAL":25,"TEXCOORD_0":26}}]},{"name":"Mesh0","primitives":[{"indices":31,"material":7,"attributes":{"POSITION":28,"NORMAL":29,"TEXCOORD_0":30}}]},{"name":"Mesh0","primitives":[{"indices":35,"material":8,"attributes":{"POSITION":32,"NORMAL":33,"TEXCOORD_0":34}}]},{"name":"Mesh0","primitives":[{"indices":39,"material":9,"attributes":{"POSITION":36,"NORMAL":37,"TEXCOORD_0":38}}]}],"accessors":[{"bufferView":0,"componentType":5126,"count":63,"type":"VEC3","min":[-0.6382005,-0.99155205,0.1539746],"max":[1.601467,1.0671296,1.7465377]},{"bufferView":1,"componentType":5126,"count":63,"type":"VEC3"},{"bufferView":2,"componentType":5126,"count":63,"type":"VEC2"},{"bufferView":3,"componentType":5123,"count":720,"type":"SCALAR"},{"bufferView":4,"componentType":5126,"count":63,"type":"VEC3","min":[-0.24855009,0.20810556,0.06303012],"max":[1.0066503,1.4958014,0.9042103]},{"bufferView":5,"componentType":5126,"count":63,"type":"VEC3"},{"bufferView":6,"componentType":5126,"count":63,"type":"VEC2"},{"bufferView":7,"componentType":5123,"count":720,"type":"SCALAR"},{"bufferView":8,"componentType":5126,"count":63,"type":"VEC3","min":[-1.2134372,-0.07964963,0.154832],"max":[0.07136923,1.152076,1.0773073]},{"bufferView":9,"componentType":5126,"count":63,"type":"VEC3"},{"bufferView":10,"componentType":5126,"count":63,"type":"VEC2"},{"bufferView":11,"componentType":5123,"count":720,"type":"SCALAR"},{"bufferView":12,"componentType":5126,"count":63,"type":"VEC3","min":[-1.8314905,-4.3051414,0.1539746],"max":[0.18306589,-2.121025,1.7465377]},{"bufferView":13,"componentType":5126,"count":63,"type":"VEC3"},{"bufferView":14,"componentType":5126,"count":63,"type":"VEC2"},{"bufferView":15,"componentType":5123,"count":720,"type":"SCALAR"},{"bufferView":16,"componentType":5126,"count":63,"type":"VEC3","min":[-2.1938171,-4.350781,0.154832],"max":[-0.8651421,-3.0938025,1.1279714]},{"bufferView":17,"componentType":5126,"count":63,"type":"VEC3"},{"bufferView":18,"componentType":5126,"count":63,"type":"VEC2"},{"bufferView":19,"componentType":5123,"count":720,"type":"SCALAR"},{"bufferView":20,"componentType":5126,"count":63,"type":"VEC3","min":[0.26978713,3.0101895,0.154832],"max":[1.5984621,4.267168,1.1279714]},{"bufferView":21,"componentType":5126,"count":63,"type":"VEC3"},{"bufferView":22,"componentType":5126,"count":63,"type":"VEC2"},{"bufferView":23,"componentType":5123,"count":720,"type":"SCALAR"},{"bufferView":24,"componentType":5126,"count":63,"type":"VEC3","min":[-4.022459,3.2502346,0.16084602],"max":[-3.5071738,3.7377148,0.4247238]},{"bufferView":25,"componentType":5126,"count":63,"type":"VEC3"},{"bufferView":26,"componentType":5126,"count":63,"type":"VEC2"},{"bufferView":27,"componentType":5123,"count":720,"type":"SCALAR"},{"bufferView":28,"componentType":5126,"count":63,"type":"VEC3","min":[-4.3275847,3.0074792,0.09723513],"max":[-3.8122995,3.4949594,0.3611129]},{"bufferView":29,"componentType":5126,"count":63,"type":"VEC3"},{"bufferView":30,"componentType":5126,"count":63,"type":"VEC2"},{"bufferView":31,"componentType":5123,"count":720,"type":"SCALAR"},{"bufferView":32,"componentType":5126,"count":63,"type":"VEC3","min":[-4.6731,0.40041327,0.09723513],"max":[-4.1578145,0.8878934,0.3611129]},{"bufferView":33,"componentType":5126,"count":63,"type":"VEC3"},{"bufferView":34,"componentType":5126,"count":63,"type":"VEC2"},{"bufferView":35,"componentType":5123,"count":720,"type":"SCALAR"},{"bufferView":36,"componentType":5126,"count":14,"type":"VEC3","min":[-14.447237,-14.447237,-0.19611654],"max":[14.447237,14.447237,0.19611654]},{"bufferView":37,"componentType":5126,"count":14,"type":"VEC3"},{"bufferView":38,"componentType":5126,"count":14,"type":"VEC2"},{"bufferView":39,"componentType":5123,"count":108,"type":"SCALAR"}],"bufferViews":[{"target":34962,"buffer":0,"byteLength":756,"byteOffset":0},{"target":34962,"buffer":0,"byteLength":756,"byteOffset":756},{"target":34962,"buffer":0,"byteLength":504,"byteOffset":1512},{"target":34963,"buffer":0,"byteLength":1440,"byteOffset":2016},{"target":34962,"buffer":0,"byteLength":756,"byteOffset":3456},{"target":34962,"buffer":0,"byteLength":756,"byteOffset":4212},{"target":34962,"buffer":0,"byteLength":504,"byteOffset":4968},{"target":34963,"buffer":0,"byteLength":1440,"byteOffset":5472},{"target":34962,"buffer":0,"byteLength":756,"byteOffset":6912},{"target":34962,"buffer":0,"byteLength":756,"byteOffset":7668},{"target":34962,"buffer":0,"byteLength":504,"byteOffset":8424},{"target":34963,"buffer":0,"byteLength":1440,"byteOffset":8928},{"target":34962,"buffer":0,"byteLength":756,"byteOffset":10368},{"target":34962,"buffer":0,"byteLength":756,"byteOffset":11124},{"target":34962,"buffer":0,"byteLength":504,"byteOffset":11880},{"target":34963,"buffer":0,"byteLength":1440,"byteOffset":12384},{"target":34962,"buffer":0,"byteLength":756,"byteOffset":13824},{"target":34962,"buffer":0,"byteLength":756,"byteOffset":14580},{"target":34962,"buffer":0,"byteLength":504,"byteOffset":15336},{"target":34963,"buffer":0,"byteLength":1440,"byteOffset":15840},{"target":34962,"buffer":0,"byteLength":756,"byteOffset":17280},{"target":34962,"buffer":0,"byteLength":756,"byteOffset":18036},{"target":34962,"buffer":0,"byteLength":504,"byteOffset":18792},{"target":34963,"buffer":0,"byteLength":1440,"byteOffset":19296},{"target":34962,"buffer":0,"byteLength":756,"byteOffset":20736},{"target":34962,"buffer":0,"byteLength":756,"byteOffset":21492},{"target":34962,"buffer":0,"byteLength":504,"byteOffset":22248},{"target":34963,"buffer":0,"byteLength":1440,"byteOffset":22752},{"target":34962,"buffer":0,"byteLength":756,"byteOffset":24192},{"target":34962,"buffer":0,"byteLength":756,"byteOffset":24948},{"target":34962,"buffer":0,"byteLength":504,"byteOffset":25704},{"target":34963,"buffer":0,"byteLength":1440,"byteOffset":26208},{"target":34962,"buffer":0,"byteLength":756,"byteOffset":27648},{"target":34962,"buffer":0,"byteLength":756,"byteOffset":28404},{"target":34962,"buffer":0,"byteLength":504,"byteOffset":29160},{"target":34963,"buffer":0,"byteLength":1440,"byteOffset":29664},{"target":34962,"buffer":0,"byteLength":168,"byteOffset":31104},{"target":34962,"buffer":0,"byteLength":168,"byteOffset":31272},{"target":34962,"buffer":0,"byteLength":112,"byteOffset":31440},{"target":34963,"buffer":0,"byteLength":216,"byteOffset":31552}],"buffers":[{"byteLength":31768,"uri":"data:application/octet-stream;base64,"}]}